<?xml version="1.0" encoding="UTF-8" standalone="no"?> <svg width="24" height="24" viewBox="0 0 24 24" fill="none" xmlns="http://www.w3.org/2000/svg">
<path d="M3.20702 19.6412C2.32294 18.4416 1.9041 16.962 2.02824 15.477C2.15237 13.992 2.81105 12.6024 3.88202 11.5662L5.15702 10.2932C5.34558 10.1043 5.6015 9.99795 5.86846 9.99767C6.13541 9.99739 6.39155 10.1032 6.58052 10.2917C6.76948 10.4803 6.8758 10.7362 6.87608 11.0032C6.87636 11.2701 6.77058 11.5263 6.58202 11.7152L5.15702 13.1352C4.76153 13.5301 4.45284 14.0032 4.2507 14.5242C4.04856 15.0453 3.95743 15.6028 3.98312 16.1611C4.00882 16.7193 4.15079 17.2661 4.39994 17.7664C4.64909 18.2666 4.99993 18.7094 5.43002 19.0662C6.24511 19.6991 7.26536 20.0083 8.29465 19.9345C9.32393 19.8607 10.2896 19.409 11.006 18.6662L12.28 17.4002C12.3701 17.2949 12.481 17.2093 12.6057 17.1488C12.7305 17.0884 12.8664 17.0543 13.0049 17.0489C13.1434 17.0434 13.2815 17.0666 13.4106 17.117C13.5397 17.1675 13.657 17.2441 13.7552 17.342C13.8533 17.4399 13.9301 17.557 13.9808 17.686C14.0315 17.815 14.055 17.9531 14.0499 18.0917C14.0447 18.2302 14.0109 18.3661 13.9507 18.491C13.8905 18.6159 13.8052 18.7269 13.7 18.8172L12.275 20.2372C11.6647 20.8432 10.9326 21.3123 10.1271 21.6136C9.32159 21.9148 8.46123 22.0413 7.60313 21.9845C6.74503 21.9278 5.90881 21.6891 5.15001 21.2844C4.39121 20.8797 3.72718 20.3182 3.20202 19.6372L3.20702 19.6412ZM9.29302 14.7072C9.10554 14.5197 9.00023 14.2654 9.00023 14.0002C9.00023 13.7351 9.10554 13.4808 9.29302 13.2932L13.293 9.29324C13.4816 9.11108 13.7342 9.01029 13.9964 9.01256C14.2586 9.01484 14.5094 9.12001 14.6948 9.30542C14.8802 9.49083 14.9854 9.74164 14.9877 10.0038C14.99 10.266 14.8892 10.5186 14.707 10.7072L10.707 14.7072C10.5195 14.8947 10.2652 15 10 15C9.73485 15 9.48054 14.8947 9.29302 14.7072V14.7072ZM17.393 13.7072C17.2041 13.5182 17.098 13.2619 17.098 12.9947C17.098 12.7275 17.2041 12.4713 17.393 12.2822L18.815 10.8552C19.2103 10.4583 19.5186 9.98352 19.7205 9.46102C19.9224 8.93851 20.0134 8.37973 19.9877 7.82017C19.962 7.26061 19.8203 6.71251 19.5714 6.21069C19.3225 5.70887 18.9719 5.2643 18.542 4.90524C17.7296 4.26999 16.7101 3.95917 15.6815 4.03308C14.6528 4.107 13.6883 4.56037 12.975 5.30524L11.7 6.57724C11.607 6.67127 11.4963 6.74592 11.3742 6.79687C11.2522 6.84781 11.1213 6.87405 10.989 6.87405C10.8568 6.87405 10.7258 6.84781 10.6038 6.79687C10.4817 6.74592 10.371 6.67127 10.278 6.57724C10.1776 6.46363 10.1022 6.33027 10.0564 6.18575C10.0106 6.04123 9.99558 5.88873 10.0122 5.73805C10.0289 5.58737 10.0769 5.44184 10.1532 5.31082C10.2294 5.17979 10.3322 5.06617 10.455 4.97724L11.527 3.90024C12.5699 2.81966 13.97 2.15493 15.4666 2.02983C16.9631 1.90473 18.4542 2.3278 19.662 3.22024C20.3391 3.74745 20.8965 4.41238 21.2974 5.17105C21.6984 5.92972 21.9337 6.76487 21.9879 7.62126C22.042 8.47765 21.9138 9.33579 21.6116 10.1389C21.3095 10.9421 20.8402 11.6719 20.235 12.2802L18.812 13.7002C18.719 13.7943 18.6083 13.8689 18.4862 13.9199C18.3642 13.9708 18.2333 13.997 18.101 13.997C17.9688 13.997 17.8378 13.9708 17.7158 13.9199C17.5937 13.8689 17.483 13.7943 17.39 13.7002L17.393 13.7072Z" fill="white"/>
</svg>
